<svg xmlns="http://www.w3.org/2000/svg" viewBox="0 0 512 512" style="height: 512px; width: 512px;"><defs><clipPath id="icon-bg"><rect fill="url(#skoll-raise-zombie-gradient-0)" height="512" width="512" rx="32" ry="32" transform="translate(-25.6, -25.6) scale(1.1, 1.1) rotate(0, 256, 256) skewX(0) skewY(0)"></rect></clipPath><filter id="shadow-1" height="300%" width="300%" x="-100%" y="-100%"><feFlood flood-color="rgba(87, 145, 31, 1)" result="flood"></feFlood><feComposite in="flood" in2="SourceGraphic" operator="out" result="composite"></feComposite><feGaussianBlur in="composite" stdDeviation="15" result="blur"></feGaussianBlur><feOffset dx="0" dy="0" result="offset"></feOffset><feComposite in="offset" in2="SourceGraphic" operator="atop"></feComposite></filter><radialGradient id="skoll-raise-zombie-gradient-0"><stop offset="0%" stop-color="#c98b0b" stop-opacity="1"></stop><stop offset="100%" stop-color="#161515" stop-opacity="1"></stop></radialGradient><linearGradient x1="0" x2="0" y1="0" y2="1" id="skoll-raise-zombie-gradient-1"><stop offset="0%" stop-color="#7ed321" stop-opacity="1"></stop><stop offset="100%" stop-color="#8b572a" stop-opacity="1"></stop></linearGradient></defs><rect fill="url(#skoll-raise-zombie-gradient-0)" height="512" width="512" rx="32" ry="32"></rect><g class="" transform="translate(-1,-60)" style=""><path d="M30.653 470.114l55.34-20.32 84.09-19.62 10.78 18.22 25 15.92 41.34-5.41 27.86 8.41 39.41 1.4 36.71-34.72 46.68 19.3 37.84 9.11 58.628 32.737H17.67zm238.6-202.77l-6 10c10.09 6.1 21.58 6.39 32.88 3.21a92.26 92.26 0 0 0 15.72-6.22c-.31 6.28-.36 16.58-.19 29.29l-18.82-2.87 3.86 115 19.72-.85c.69 9.53 1.45 18.47 2.27 26.44l-10.72 10.14-30.09-1.07-25.79-7.77-3.5-1.06-3.62.47-35.2 4.59-4.89-3.12c8.11-37.88 17.45-123.11 19.51-141.7.89-7.27 1.226-14.6 1-21.92l9.89-5.34.7-6.39-3-6.52h-8.88l-4.65-9.13-1.83.63a30 30 0 0 0-2.63-3.11l-.08-.08-24-25.88 2.36-6-1.18-7.08-8.51-2.36-2.07-10-13.35.87-30.95-33.39c.53-4.33 3-9.83 6.9-14.16 3.7-4.16 8.26-6.81 11.88-7.54l59 62.41 9.49-6.55-43.09-89.08c1.73-4 5.71-8.14 10.73-10.83 4.84-2.6 10.11-3.49 13.75-3l45.5 92.27 11-3.53-16.29-98.92c2.68-2.68 7.66-5.23 13-6a27.14 27.14 0 0 1 3.55-.27h1.17a21.3 21.3 0 0 1 9.93 2.59l15.06 94.32 11.43.35 17.77-80.41c5.89 4.64 19.24 15.77 19.24 15.77l7.25-2.3-19.62 89.33h.06l-1.44 6.31-.64 2.88 8.88 5.78c14.3-8.86 28.38-18 40.27-22.17 7.78-2.7 14.2-3.2 19.36-1.17 4.25 1.67 8.26 5.37 11.9 12.43-29.73 14.51-55.85 34.55-78.25 48.74-11.87 7.52-22.69 13.34-32 16-9.31 2.66-16.73 2.22-23.75-2.03zm-9.84 65.39v26l11.38 9.15-4.78 6.2.28 18.89 8.3 9.15 11.94 9.9-3.6-107.26-8.34 5.56-7.74 22.43h-7.44z" fill="url(#skoll-raise-zombie-gradient-1)" clip-path="url(#icon-bg)" filter="url(#shadow-1)" stroke="#163a16" stroke-opacity="1" stroke-width="8" transform="translate(25.6, 25.6) scale(0.9, 0.9) rotate(0, 256, 256) skewX(0) skewY(0)"></path></g><g font-family="Arial, Helvetica, sans-serif" font-size="60" font-style="normal" font-weight="bold" text-anchor="middle" text-decoration=" rgba(234, 20, 14, 1)" class="" transform="translate(261,482)" style=""><g><text stroke="rgba(40, 39, 39, 1)" stroke-width="15"><tspan x="0" y="0">Here They Come</tspan></text><text fill="rgba(234, 20, 14, 1)"><tspan x="0" y="0">Here They Come</tspan></text></g></g></svg>